<svg width="10.94mm" height="8.3847mm" version="1.1" viewBox="0 0 10.94 8.3847" xmlns="http://www.w3.org/2000/svg">
 <g transform="translate(-99.5 -144.49)">
  <g transform="matrix(.35278 0 0 -.35278 101.6 147.67)">
   <path d="m0 0-0.17-1.304" fill="none" stroke="#000" stroke-linecap="round" stroke-linejoin="round" stroke-miterlimit="10" stroke-width=".454"/>
   <g transform="translate(-.113 -1.644)">
    <path d="m0 0-0.057 0.34" fill="none" stroke="#000" stroke-linecap="round" stroke-linejoin="round" stroke-miterlimit="10" stroke-width=".454"/>
    <g transform="translate(-1.474,-1.134)">
     <path d="m0 0-1.304 0.567" fill="none" stroke="#000" stroke-linecap="round" stroke-linejoin="round" stroke-miterlimit="10" stroke-width=".454"/>
     <g transform="translate(-.283 .68)">
      <path d="m0 0-1.02 0.454" fill="none" stroke="#000" stroke-linecap="round" stroke-linejoin="round" stroke-miterlimit="10" stroke-width=".454"/>
      <g transform="translate(.964 .624)">
       <path d="m0 0-0.227-1.077" fill="none" stroke="#000" stroke-linecap="round" stroke-linejoin="round" stroke-miterlimit="10" stroke-width=".454"/>
       <g transform="translate(-.454 .624)">
        <path d="m0 0-0.227-1.077" fill="none" stroke="#000" stroke-linecap="round" stroke-linejoin="round" stroke-miterlimit="10" stroke-width=".454"/>
        <g transform="translate(1.247 -.794)">
         <path d="m0 0-0.51 0.34" fill="none" stroke="#000" stroke-linecap="round" stroke-linejoin="round" stroke-miterlimit="10" stroke-width=".454"/>
         <g transform="translate(0 .567)">
          <path d="m0 0-0.85 0.51" fill="none" stroke="#000" stroke-linecap="round" stroke-linejoin="round" stroke-miterlimit="10" stroke-width=".454"/>
          <g transform="translate(-1.474,-1.701)">
           <path d="m0 0c0.114-0.066 0.223-0.076 0.303-0.03s0.125 0.143 0.126 0.271" fill="none" stroke="#000" stroke-linecap="round" stroke-linejoin="round" stroke-miterlimit="10" stroke-width=".454"/>
           <g transform="translate(-.283 .68)">
            <path d="m0 0h0.17l0.113 0.17" fill="none" stroke="#000" stroke-linecap="round" stroke-linejoin="round" stroke-miterlimit="10" stroke-width=".454"/>
            <g transform="translate(.964 1.474)">
             <path d="m0 0c-0.114 0.066-0.223 0.077-0.304 0.03-0.079-0.046-0.123-0.143-0.124-0.272" fill="none" stroke="#000" stroke-linecap="round" stroke-linejoin="round" stroke-miterlimit="10" stroke-width=".454"/>
             <g transform="translate(.283 -.68)">
              <path d="m0 0h-0.17l-0.113-0.17" fill="none" stroke="#000" stroke-linecap="round" stroke-linejoin="round" stroke-miterlimit="10" stroke-width=".454"/>
              <g transform="translate(-2.268 -.907)">
               <path d="m0 0v0.567" fill="none" stroke="#000" stroke-linecap="round" stroke-linejoin="round" stroke-miterlimit="10" stroke-width=".454"/>
               <g transform="translate(1.587 -.624)">
                <path d="m0 0 1.191 1.191" fill="none" stroke="#000" stroke-linecap="round" stroke-linejoin="round" stroke-miterlimit="10" stroke-width=".454"/>
                <g transform="translate(-.113 1.587)">
                 <path d="m0 0-0.454 0.17" fill="none" stroke="#000" stroke-linecap="round" stroke-linejoin="round" stroke-miterlimit="10" stroke-width=".454"/>
                 <g transform="translate(1.247,1.304)">
                  <path d="m0 0 0.17-0.057" fill="none" stroke="#000" stroke-linecap="round" stroke-linejoin="round" stroke-miterlimit="10" stroke-width=".454"/>
                  <g transform="translate(-2.721,-1.701)">
                   <path d="m0 0 1.02 0.567" fill="none" stroke="#000" stroke-linecap="round" stroke-linejoin="round" stroke-miterlimit="10" stroke-width=".454"/>
                   <g transform="translate(1.701,1.077)">
                    <path d="m0 0 1.02 0.624" fill="none" stroke="#000" stroke-linecap="round" stroke-linejoin="round" stroke-miterlimit="10" stroke-width=".454"/>
                    <g transform="translate(4.365,2.381)">
                     <path d="m0 0-0.227-1.304" fill="none" stroke="#000" stroke-linecap="round" stroke-linejoin="round" stroke-miterlimit="10" stroke-width=".454"/>
                     <g transform="translate(-.17 -1.644)">
                      <path d="m0 0-0.057 0.34" fill="none" stroke="#000" stroke-linecap="round" stroke-linejoin="round" stroke-miterlimit="10" stroke-width=".454"/>
                      <g transform="translate(-1.417,-1.134)">
                       <path d="m0 0-1.304 0.567" fill="none" stroke="#000" stroke-linecap="round" stroke-linejoin="round" stroke-miterlimit="10" stroke-width=".454"/>
                       <g transform="translate(-.34 .68)">
                        <path d="m0 0-0.964 0.454" fill="none" stroke="#000" stroke-linecap="round" stroke-linejoin="round" stroke-miterlimit="10" stroke-width=".454"/>
                        <g transform="translate(1.02 .624)">
                         <path d="m0 0-0.283-1.077" fill="none" stroke="#000" stroke-linecap="round" stroke-linejoin="round" stroke-miterlimit="10" stroke-width=".454"/>
                         <g transform="translate(-.454 .624)">
                          <path d="m0 0-0.283-1.077" fill="none" stroke="#000" stroke-linecap="round" stroke-linejoin="round" stroke-miterlimit="10" stroke-width=".454"/>
                          <g transform="translate(1.191 -.794)">
                           <path d="m0 0-0.454 0.34" fill="none" stroke="#000" stroke-linecap="round" stroke-linejoin="round" stroke-miterlimit="10" stroke-width=".454"/>
                           <g transform="translate(0 .567)">
                            <path d="m0 0-0.85 0.51" fill="none" stroke="#000" stroke-linecap="round" stroke-linejoin="round" stroke-miterlimit="10" stroke-width=".454"/>
                            <g transform="translate(-1.417,-1.701)">
                             <path d="m0 0c0.114-0.066 0.223-0.076 0.303-0.03 0.072 0.041 0.116 0.125 0.125 0.236" fill="none" stroke="#000" stroke-linecap="round" stroke-linejoin="round" stroke-miterlimit="10" stroke-width=".454"/>
                             <g transform="translate(-.34 .68)">
                              <path d="m0 0c0.075-0.044 0.148-0.051 0.201-0.02 0.055 0.031 0.085 0.099 0.085 0.189" fill="none" stroke="#000" stroke-linecap="round" stroke-linejoin="round" stroke-miterlimit="10" stroke-width=".454"/>
                              <g transform="translate(1.021,1.474)">
                               <path d="m0 0c-0.114 0.066-0.223 0.076-0.303 0.03s-0.125-0.143-0.126-0.271" fill="none" stroke="#000" stroke-linecap="round" stroke-linejoin="round" stroke-miterlimit="10" stroke-width=".454"/>
                               <g transform="translate(.283 -.68)">
                                <path d="m0 0c-0.076 0.044-0.148 0.051-0.201 0.02-0.055-0.031-0.085-0.099-0.085-0.189" fill="none" stroke="#000" stroke-linecap="round" stroke-linejoin="round" stroke-miterlimit="10" stroke-width=".454"/>
                                <g transform="translate(-2.268 -.907)">
                                 <path d="m0 0v0.567" fill="none" stroke="#000" stroke-linecap="round" stroke-linejoin="round" stroke-miterlimit="10" stroke-width=".454"/>
                                 <g transform="translate(1.531 -.624)">
                                  <path d="m0 0 1.191 1.191" fill="none" stroke="#000" stroke-linecap="round" stroke-linejoin="round" stroke-miterlimit="10" stroke-width=".454"/>
                                  <g transform="translate(-.057 1.587)">
                                   <path d="m0 0-0.454 0.17" fill="none" stroke="#000" stroke-linecap="round" stroke-linejoin="round" stroke-miterlimit="10" stroke-width=".454"/>
                                   <g transform="translate(1.191,1.304)">
                                    <path d="m0 0 0.227-0.057" fill="none" stroke="#000" stroke-linecap="round" stroke-linejoin="round" stroke-miterlimit="10" stroke-width=".454"/>
                                    <g transform="translate(-2.665,-1.701)">
                                     <path d="m0 0 1.02 0.567" fill="none" stroke="#000" stroke-linecap="round" stroke-linejoin="round" stroke-miterlimit="10" stroke-width=".454"/>
                                     <g transform="translate(1.701,1.077)">
                                      <path d="m0 0 0.964 0.624" fill="none" stroke="#000" stroke-linecap="round" stroke-linejoin="round" stroke-miterlimit="10" stroke-width=".454"/>
                                      <g transform="translate(4.252,2.381)">
                                       <path d="m0 0-0.17-1.304" fill="none" stroke="#000" stroke-linecap="round" stroke-linejoin="round" stroke-miterlimit="10" stroke-width=".454"/>
                                       <g transform="translate(-.113 -1.644)">
                                        <path d="m0 0-0.057 0.34" fill="none" stroke="#000" stroke-linecap="round" stroke-linejoin="round" stroke-miterlimit="10" stroke-width=".454"/>
                                        <g transform="translate(-1.474,-1.191)">
                                         <path d="m0 0-1.304 0.567" fill="none" stroke="#000" stroke-linecap="round" stroke-linejoin="round" stroke-miterlimit="10" stroke-width=".454"/>
                                         <g transform="translate(-.283 .737)">
                                          <path d="m0 0-1.02 0.397" fill="none" stroke="#000" stroke-linecap="round" stroke-linejoin="round" stroke-miterlimit="10" stroke-width=".454"/>
                                          <g transform="translate(.964 .624)">
                                           <path d="m0 0-0.227-1.077" fill="none" stroke="#000" stroke-linecap="round" stroke-linejoin="round" stroke-miterlimit="10" stroke-width=".454"/>
                                           <g transform="translate(-.454 .624)">
                                            <path d="m0 0-0.227-1.077" fill="none" stroke="#000" stroke-linecap="round" stroke-linejoin="round" stroke-miterlimit="10" stroke-width=".454"/>
                                            <g transform="translate(1.247 -.794)">
                                             <path d="m0 0-0.51 0.283" fill="none" stroke="#000" stroke-linecap="round" stroke-linejoin="round" stroke-miterlimit="10" stroke-width=".454"/>
                                             <g transform="translate(0 .567)">
                                              <path d="m0 0-0.85 0.51" fill="none" stroke="#000" stroke-linecap="round" stroke-linejoin="round" stroke-miterlimit="10" stroke-width=".454"/>
                                              <g transform="translate(-1.474,-1.758)">
                                               <path d="m0 0c0.114-0.066 0.223-0.076 0.303-0.03 0.091 0.052 0.137 0.172 0.125 0.325" fill="none" stroke="#000" stroke-linecap="round" stroke-linejoin="round" stroke-miterlimit="10" stroke-width=".454"/>
                                               <g transform="translate(-.283 .737)">
                                                <path d="m0 0h0.17l0.113 0.17" fill="none" stroke="#000" stroke-linecap="round" stroke-linejoin="round" stroke-miterlimit="10" stroke-width=".454"/>
                                                <g transform="translate(.964 1.474)">
                                                 <path d="m0 0c-0.114 0.066-0.223 0.077-0.304 0.03-0.079-0.046-0.123-0.143-0.124-0.272" fill="none" stroke="#000" stroke-linecap="round" stroke-linejoin="round" stroke-miterlimit="10" stroke-width=".454"/>
                                                 <g transform="translate(.284 -.737)">
                                                  <path d="m0 0c-0.076 0.044-0.148 0.051-0.201 0.02-0.043-0.024-0.071-0.071-0.081-0.135" fill="none" stroke="#000" stroke-linecap="round" stroke-linejoin="round" stroke-miterlimit="10" stroke-width=".454"/>
                                                  <g transform="translate(-2.268 -.907)">
                                                   <path d="m0 0v0.567" fill="none" stroke="#000" stroke-linecap="round" stroke-linejoin="round" stroke-miterlimit="10" stroke-width=".454"/>
                                                   <g transform="translate(1.587 -.624)">
                                                    <path d="m0 0 1.191 1.247" fill="none" stroke="#000" stroke-linecap="round" stroke-linejoin="round" stroke-miterlimit="10" stroke-width=".454"/>
                                                    <g transform="translate(-.113 1.587)">
                                                     <path d="m0 0-0.454 0.17" fill="none" stroke="#000" stroke-linecap="round" stroke-linejoin="round" stroke-miterlimit="10" stroke-width=".454"/>
                                                     <g transform="translate(1.247,1.304)">
                                                      <path d="m0 0h0.17" fill="none" stroke="#000" stroke-linecap="round" stroke-linejoin="round" stroke-miterlimit="10" stroke-width=".454"/>
                                                      <g transform="translate(-2.721,-1.701)">
                                                       <path d="m0 0 1.02 0.567" fill="none" stroke="#000" stroke-linecap="round" stroke-linejoin="round" stroke-miterlimit="10" stroke-width=".454"/>
                                                       <g transform="translate(1.701,1.134)">
                                                        <path d="m0 0 1.02 0.567" fill="none" stroke="#000" stroke-linecap="round" stroke-linejoin="round" stroke-miterlimit="10" stroke-width=".454"/>
                                                        <g transform="translate(4.365,2.381)">
                                                         <path d="m0 0-0.227-1.304" fill="none" stroke="#000" stroke-linecap="round" stroke-linejoin="round" stroke-miterlimit="10" stroke-width=".454"/>
                                                         <g transform="translate(-.17 -1.644)">
                                                          <path d="m0 0-0.057 0.34" fill="none" stroke="#000" stroke-linecap="round" stroke-linejoin="round" stroke-miterlimit="10" stroke-width=".454"/>
                                                          <g transform="translate(-1.417,-1.191)">
                                                           <path d="m0 0-1.304 0.567" fill="none" stroke="#000" stroke-linecap="round" stroke-linejoin="round" stroke-miterlimit="10" stroke-width=".454"/>
                                                           <g transform="translate(-.34 .737)">
                                                            <path d="m0 0-0.964 0.397" fill="none" stroke="#000" stroke-linecap="round" stroke-linejoin="round" stroke-miterlimit="10" stroke-width=".454"/>
                                                            <g transform="translate(1.02 .624)">
                                                             <path d="m0 0-0.283-1.077" fill="none" stroke="#000" stroke-linecap="round" stroke-linejoin="round" stroke-miterlimit="10" stroke-width=".454"/>
                                                             <g transform="translate(-.454 .567)">
                                                              <path d="m0 0-0.227-1.02" fill="none" stroke="#000" stroke-linecap="round" stroke-linejoin="round" stroke-miterlimit="10" stroke-width=".454"/>
                                                              <g transform="translate(1.191 -.737)">
                                                               <path d="m0 0-0.454 0.284" fill="none" stroke="#000" stroke-linecap="round" stroke-linejoin="round" stroke-miterlimit="10" stroke-width=".454"/>
                                                               <g transform="translate(0 .567)">
                                                                <path d="m0 0-0.85 0.51" fill="none" stroke="#000" stroke-linecap="round" stroke-linejoin="round" stroke-miterlimit="10" stroke-width=".454"/>
                                                                <g transform="translate(-1.417,-1.757)">
                                                                 <path d="m0 0c0.114-0.066 0.223-0.076 0.303-0.03 0.085 0.049 0.13 0.156 0.126 0.297" fill="none" stroke="#000" stroke-linecap="round" stroke-linejoin="round" stroke-miterlimit="10" stroke-width=".454"/>
                                                                 <g transform="translate(-.34 .737)">
                                                                  <path d="m0 0c0.075-0.044 0.148-0.051 0.201-0.02 0.061 0.034 0.091 0.114 0.084 0.217" fill="none" stroke="#000" stroke-linecap="round" stroke-linejoin="round" stroke-miterlimit="10" stroke-width=".454"/>
                                                                  <g transform="translate(1.02,1.474)">
                                                                   <path d="m0 0c-0.114 0.066-0.223 0.076-0.303 0.03-0.091-0.052-0.137-0.172-0.125-0.325" fill="none" stroke="#000" stroke-linecap="round" stroke-linejoin="round" stroke-miterlimit="10" stroke-width=".454"/>
                                                                   <g transform="translate(.283 -.737)">
                                                                    <path d="m0 0c-0.075 0.044-0.148 0.051-0.201 0.02-0.043-0.024-0.071-0.071-0.081-0.135" fill="none" stroke="#000" stroke-linecap="round" stroke-linejoin="round" stroke-miterlimit="10" stroke-width=".454"/>
                                                                    <g transform="translate(-2.268 -.907)">
                                                                     <path d="m0 0v0.567" fill="none" stroke="#000" stroke-linecap="round" stroke-linejoin="round" stroke-miterlimit="10" stroke-width=".454"/>
                                                                     <g transform="translate(1.531 -.624)">
                                                                      <path d="m0 0 1.191 1.247" fill="none" stroke="#000" stroke-linecap="round" stroke-linejoin="round" stroke-miterlimit="10" stroke-width=".454"/>
                                                                      <g transform="translate(-.057 1.587)">
                                                                       <path d="m0 0-0.454 0.17" fill="none" stroke="#000" stroke-linecap="round" stroke-linejoin="round" stroke-miterlimit="10" stroke-width=".454"/>
                                                                       <g transform="translate(1.247,1.304)">
                                                                        <path d="m0 0h0.17" fill="none" stroke="#000" stroke-linecap="round" stroke-linejoin="round" stroke-miterlimit="10" stroke-width=".454"/>
                                                                        <g transform="translate(-2.721,-1.701)">
                                                                         <path d="m0 0 1.02 0.567" fill="none" stroke="#000" stroke-linecap="round" stroke-linejoin="round" stroke-miterlimit="10" stroke-width=".454"/>
                                                                         <g transform="translate(1.701,1.134)">
                                                                          <path d="m0 0 1.02 0.567" fill="none" stroke="#000" stroke-linecap="round" stroke-linejoin="round" stroke-miterlimit="10" stroke-width=".454"/>
                                                                         </g>
                                                                        </g>
                                                                       </g>
                                                                      </g>
                                                                     </g>
                                                                    </g>
                                                                   </g>
                                                                  </g>
                                                                 </g>
                                                                </g>
                                                               </g>
                                                              </g>
                                                             </g>
                                                            </g>
                                                           </g>
                                                          </g>
                                                         </g>
                                                        </g>
                                                       </g>
                                                      </g>
                                                     </g>
                                                    </g>
                                                   </g>
                                                  </g>
                                                 </g>
                                                </g>
                                               </g>
                                              </g>
                                             </g>
                                            </g>
                                           </g>
                                          </g>
                                         </g>
                                        </g>
                                       </g>
                                      </g>
                                     </g>
                                    </g>
                                   </g>
                                  </g>
                                 </g>
                                </g>
                               </g>
                              </g>
                             </g>
                            </g>
                           </g>
                          </g>
                         </g>
                        </g>
                       </g>
                      </g>
                     </g>
                    </g>
                   </g>
                  </g>
                 </g>
                </g>
               </g>
              </g>
             </g>
            </g>
           </g>
          </g>
         </g>
        </g>
       </g>
      </g>
     </g>
    </g>
   </g>
  </g>
  <g transform="matrix(.35278 0 0 -.35278 101.2 148.75)">
   <path d="m0 0 0.624-2.381 7.767-4.536c0.202-0.116 0.477-0.182 0.764-0.182 0.288 0 0.563 0.066 0.766 0.183v-1e-3l11.055 6.35 0.341 2.381-0.171 1.247-0.963 1.418-7.54 4.365c-0.203 0.117-0.478 0.183-0.765 0.183-0.273 0-0.536-0.06-0.736-0.167l0.026-0.016-10.148-5.839-1.02-2.381 0.057-0.624" fill-rule="evenodd"/>
   <path d="m0 0 0.624-2.381 7.767-4.536c0.202-0.116 0.477-0.182 0.764-0.182 0.288 0 0.563 0.066 0.766 0.183v-1e-3l11.055 6.35 0.341 2.381-0.171 1.247-0.963 1.418-7.54 4.365c-0.203 0.117-0.478 0.183-0.765 0.183-0.273 0-0.536-0.06-0.736-0.167l0.026-0.016-10.148-5.839-1.02-2.381 0.057-0.624" fill="none" stroke="#fff" stroke-linecap="round" stroke-linejoin="round" stroke-miterlimit="10" stroke-width=".454"/>
   <g transform="translate(0 .397)">
    <path d="m0 0 8.277-4.819" fill="none" stroke="#fff" stroke-linecap="round" stroke-linejoin="round" stroke-miterlimit="10" stroke-width=".454"/>
    <g transform="translate(9.921,-4.819)">
     <path d="m0 0c-0.212-0.123-0.501-0.192-0.802-0.192-0.31 0-0.607 0.074-0.821 0.204" fill="none" stroke="#fff" stroke-linecap="round" stroke-linejoin="round" stroke-miterlimit="10" stroke-width=".454"/>
     <g transform="translate(-8.674,6.633)">
      <path d="m0 0 7.483-4.309" fill="none" stroke="#fff" stroke-linecap="round" stroke-linejoin="round" stroke-miterlimit="10" stroke-width=".454"/>
      <path d="m0 0c-0.202 0.117-0.316 0.275-0.316 0.439 0 0.172 0.123 0.336 0.34 0.453" fill="none" stroke="#fff" stroke-linecap="round" stroke-linejoin="round" stroke-miterlimit="10" stroke-width=".454"/>
      <g transform="translate(7.483,-4.309)">
       <path d="m0 0 11.452 6.576" fill="none" stroke="#fff" stroke-linecap="round" stroke-linejoin="round" stroke-miterlimit="10" stroke-width=".454"/>
       <g transform="translate(.624 -2.438)">
        <path d="m0 0v0.737" fill="none" stroke="#fff" stroke-linecap="round" stroke-linejoin="round" stroke-miterlimit="10" stroke-width=".454"/>
        <g transform="translate(.567 .113)">
         <path d="m0 0 11.282 6.463" fill="none" stroke="#fff" stroke-linecap="round" stroke-linejoin="round" stroke-miterlimit="10" stroke-width=".454"/>
         <g transform="translate(.057 -.567)">
          <path d="m0 0 11.339 6.52" fill="none" stroke="#fff" stroke-linecap="round" stroke-linejoin="round" stroke-miterlimit="10" stroke-width=".454"/>
          <g transform="translate(-9.978,4.819)">
           <path d="m0 0 8.277-4.819" fill="none" stroke="#fff" stroke-linecap="round" stroke-linejoin="round" stroke-miterlimit="10" stroke-width=".454"/>
           <g transform="translate(9.921,-4.819)">
            <path d="m0 0c-0.213-0.123-0.501-0.192-0.802-0.192-0.311 0-0.607 0.074-0.821 0.203" fill="none" stroke="#fff" stroke-linecap="round" stroke-linejoin="round" stroke-miterlimit="10" stroke-width=".454"/>
            <g transform="translate(-.567 1.191)">
             <path d="m0 0 11.792 6.86" fill="none" stroke="#fff" stroke-linecap="round" stroke-linejoin="round" stroke-miterlimit="10" stroke-width=".454"/>
            </g>
           </g>
          </g>
         </g>
        </g>
       </g>
      </g>
     </g>
    </g>
   </g>
  </g>
  <g transform="matrix(.35278 0 0 -.35278 106.5 149.59)">
   <path d="m0 0-0.737 0.454-1.021-0.624-0.113-0.51 0.51-0.227c0.653-0.681 0.116-1.87 0.964-2.608l1.304-0.907 0.964 0.567v0.567c-1.858 1.309-0.889 0.709-1.644 2.948l-0.284 0.34" fill="#fff" fill-rule="evenodd"/>
   <path d="m0 0-0.737 0.454-1.021-0.624-0.113-0.51 0.51-0.227c0.653-0.681 0.116-1.87 0.964-2.608l1.304-0.907 0.964 0.567v0.567c-1.858 1.309-0.889 0.709-1.644 2.948l-0.284 0.34" fill="none" stroke="#000" stroke-linecap="round" stroke-linejoin="round" stroke-miterlimit="10" stroke-width=".454"/>
   <g transform="translate(-.113 -3.118)">
    <path d="m0 0 1.02-0.737" fill="none" stroke="#000" stroke-linecap="round" stroke-linejoin="round" stroke-miterlimit="10" stroke-width=".454"/>
    <g transform="translate(-.51 1.814)">
     <path d="m0 0 0.227-1.361" fill="none" stroke="#000" stroke-linecap="round" stroke-linejoin="round" stroke-miterlimit="10" stroke-width=".454"/>
     <g transform="translate(-1.134,1.134)">
      <path d="m0 0 0.737-0.397" fill="none" stroke="#000" stroke-linecap="round" stroke-linejoin="round" stroke-miterlimit="10" stroke-width=".454"/>
      <g transform="translate(1.644,-2.948)">
       <path d="m0 0-0.17 0.17-0.113 0.284" fill="none" stroke="#000" stroke-linecap="round" stroke-linejoin="round" stroke-miterlimit="10" stroke-width=".454"/>
       <g transform="translate(-.964 2.551)">
        <path d="m0 0 0.283-0.283 0.171-0.454" fill="none" stroke="#000" stroke-linecap="round" stroke-linejoin="round" stroke-miterlimit="10" stroke-width=".454"/>
        <g transform="translate(1.984,-3.855)">
         <path d="m0 0v0.567l0.964 0.567" fill="none" stroke="#000" stroke-linecap="round" stroke-linejoin="round" stroke-miterlimit="10" stroke-width=".454"/>
        </g>
       </g>
      </g>
     </g>
    </g>
   </g>
  </g>
  <g transform="matrix(.35278 0 0 -.35278 105.4 150.23)">
   <path d="m0 0-0.737 0.454-1.021-0.567-0.113-0.511 0.51-0.283 0.17-0.17 0.114-0.284 0.227-1.36 0.17-0.454 0.283-0.283 1.304-0.964 0.964 0.567v0.567c-1.858 1.309-0.889 0.71-1.644 2.948l-0.284 0.34" fill="#fff" fill-rule="evenodd"/>
   <path d="m0 0-0.737 0.454-1.021-0.567-0.113-0.511 0.51-0.283 0.17-0.17 0.114-0.284 0.227-1.36 0.17-0.454 0.283-0.283 1.304-0.964 0.964 0.567v0.567c-1.858 1.309-0.889 0.71-1.644 2.948l-0.284 0.34" fill="none" stroke="#000" stroke-linecap="round" stroke-linejoin="round" stroke-miterlimit="10" stroke-width=".454"/>
   <g transform="translate(-.113 -3.118)">
    <path d="m0 0 1.02-0.737" fill="none" stroke="#000" stroke-linecap="round" stroke-linejoin="round" stroke-miterlimit="10" stroke-width=".454"/>
    <g transform="translate(-.51 1.871)">
     <path d="m0 0 0.227-1.361" fill="none" stroke="#000" stroke-linecap="round" stroke-linejoin="round" stroke-miterlimit="10" stroke-width=".454"/>
     <g transform="translate(-1.134,1.134)">
      <path d="m0 0 0.737-0.454" fill="none" stroke="#000" stroke-linecap="round" stroke-linejoin="round" stroke-miterlimit="10" stroke-width=".454"/>
      <g transform="translate(1.644,-3.005)">
       <path d="m0 0-0.17 0.227-0.113 0.283" fill="none" stroke="#000" stroke-linecap="round" stroke-linejoin="round" stroke-miterlimit="10" stroke-width=".454"/>
       <g transform="translate(-.964 2.608)">
        <path d="m0 0 0.284-0.34 0.17-0.397" fill="none" stroke="#000" stroke-linecap="round" stroke-linejoin="round" stroke-miterlimit="10" stroke-width=".454"/>
        <g transform="translate(1.984,-3.912)">
         <path d="m0 0v0.567l0.964 0.567" fill="none" stroke="#000" stroke-linecap="round" stroke-linejoin="round" stroke-miterlimit="10" stroke-width=".454"/>
        </g>
       </g>
      </g>
     </g>
    </g>
   </g>
  </g>
  <g transform="matrix(.35278 0 0 -.35278 107.6 148.95)">
   <path d="m0 0-0.737 0.397-1.02-0.567-0.114-0.51 0.51-0.227c0.653-0.681 0.116-1.87 0.964-2.608l1.304-0.907 0.964 0.567v0.567l-0.964 0.737c-0.076 0.044-0.149 0.121-0.203 0.215-0.044 0.078-0.073 0.161-0.081 0.238h1e-3l-0.284 1.361-0.113 0.397-0.284 0.34" fill="#fff" fill-rule="evenodd"/>
   <path d="m0 0-0.737 0.397-1.02-0.567-0.114-0.51 0.51-0.227c0.653-0.681 0.116-1.87 0.964-2.608l1.304-0.907 0.964 0.567v0.567l-0.964 0.737c-0.076 0.044-0.149 0.121-0.203 0.215-0.044 0.078-0.073 0.161-0.081 0.238h1e-3l-0.284 1.361-0.113 0.397-0.284 0.34" fill="none" stroke="#000" stroke-linecap="round" stroke-linejoin="round" stroke-miterlimit="10" stroke-width=".454"/>
   <g transform="translate(-.113 -3.175)">
    <path d="m0 0 1.02-0.68" fill="none" stroke="#000" stroke-linecap="round" stroke-linejoin="round" stroke-miterlimit="10" stroke-width=".454"/>
    <g transform="translate(-.51 1.871)">
     <path d="m0 0 0.227-1.361" fill="none" stroke="#000" stroke-linecap="round" stroke-linejoin="round" stroke-miterlimit="10" stroke-width=".454"/>
     <g transform="translate(-1.134,1.134)">
      <path d="m0 0 0.737-0.454" fill="none" stroke="#000" stroke-linecap="round" stroke-linejoin="round" stroke-miterlimit="10" stroke-width=".454"/>
      <g transform="translate(1.644,-3.005)">
       <path d="m0 0-0.17 0.227-0.113 0.283" fill="none" stroke="#000" stroke-linecap="round" stroke-linejoin="round" stroke-miterlimit="10" stroke-width=".454"/>
       <g transform="translate(-.964 2.608)">
        <path d="m0 0 0.283-0.283 0.171-0.454" fill="none" stroke="#000" stroke-linecap="round" stroke-linejoin="round" stroke-miterlimit="10" stroke-width=".454"/>
        <g transform="translate(1.984,-3.855)">
         <path d="m0 0v0.567l0.964 0.567" fill="none" stroke="#000" stroke-linecap="round" stroke-linejoin="round" stroke-miterlimit="10" stroke-width=".454"/>
        </g>
       </g>
      </g>
     </g>
    </g>
   </g>
  </g>
  <g transform="matrix(.35278 0 0 -.35278 108.7 148.33)">
   <path d="m0 0-0.737 0.454-1.02-0.567-0.114-0.511 0.51-0.226c0.653-0.682 0.116-1.87 0.964-2.608l1.304-0.964 0.964 0.624v0.566l-0.964 0.681-0.227 0.227-0.056 0.283-0.284 1.304c0 0.132-0.046 0.286-0.127 0.426-0.073 0.125-0.169 0.231-0.271 0.299" fill="#fff" fill-rule="evenodd"/>
   <path d="m0 0-0.737 0.454-1.02-0.567-0.114-0.511 0.51-0.226c0.653-0.682 0.116-1.87 0.964-2.608l1.304-0.964 0.964 0.624v0.566l-0.964 0.681-0.227 0.227-0.056 0.283-0.284 1.304v0c0 0.132-0.046 0.286-0.127 0.426-0.073 0.125-0.169 0.231-0.271 0.299" fill="none" stroke="#000" stroke-linecap="round" stroke-linejoin="round" stroke-miterlimit="10" stroke-width=".454"/>
   <g transform="translate(-.113 -3.118)">
    <path d="m0 0 1.02-0.737" fill="none" stroke="#000" stroke-linecap="round" stroke-linejoin="round" stroke-miterlimit="10" stroke-width=".454"/>
    <g transform="translate(-.51 1.871)">
     <path d="m0 0 0.227-1.361" fill="none" stroke="#000" stroke-linecap="round" stroke-linejoin="round" stroke-miterlimit="10" stroke-width=".454"/>
     <g transform="translate(-1.134,1.134)">
      <path d="m0 0 0.737-0.454" fill="none" stroke="#000" stroke-linecap="round" stroke-linejoin="round" stroke-miterlimit="10" stroke-width=".454"/>
      <g transform="translate(1.644,-3.005)">
       <path d="m0 0-0.17 0.227-0.113 0.283" fill="none" stroke="#000" stroke-linecap="round" stroke-linejoin="round" stroke-miterlimit="10" stroke-width=".454"/>
       <g transform="translate(-.964 2.608)">
        <path d="m0 0c0.113-0.065 0.221-0.179 0.301-0.318 0.077-0.132 0.121-0.277 0.124-0.404" fill="none" stroke="#000" stroke-linecap="round" stroke-linejoin="round" stroke-miterlimit="10" stroke-width=".454"/>
        <g transform="translate(1.984,-3.912)">
         <path d="m0 0v0.567l0.964 0.624" fill="none" stroke="#000" stroke-linecap="round" stroke-linejoin="round" stroke-miterlimit="10" stroke-width=".454"/>
        </g>
       </g>
      </g>
     </g>
    </g>
   </g>
  </g>
  <g transform="matrix(.35278 0 0 -.35278 104.5 150.09)">
   <path d="m0 0-0.624 1.701" fill="none" stroke="#fff" stroke-linecap="round" stroke-linejoin="round" stroke-miterlimit="10" stroke-width=".454"/>
  </g>
 </g>
</svg>
